PathFileType	4	(X/Y/Z)	/home/abdul/Desktop/myosuite/custom_workspace/IK/output/S11_12_1.trc
DataRate	CameraRate	NumFrames	NumMarkers	Units	OrigDataRate	OrigDataStartFrame	OrigNumFrames
200.0	200.0	39	3	mm	200.0	967	1546
Frame#	Time	V_Shoulder			V_Elbow			V_Wrist		
		X1	Y1	Z1	X2	Y2	Z2	X3	Y3	Z3

967	4.83	-112.70785869109427	585.2997291590987	286.2009150338793	-272.8138498476751	397.9039322043313	44.398803373978694	-129.68057950305018	198.6341148470577	128.61444134419193
968	4.835	-112.6094598565935	584.6728364838567	286.1311460870899	-272.58742243926037	397.41318346619795	44.09844447634432	-129.44846242508126	197.84049005898322	127.54778185775744
969	4.84	-112.50948864849799	584.0491268384859	286.0642491665904	-272.3634909165757	396.92347480883734	43.808073560856116	-129.22121167611573	197.04908696070777	126.49551689083378
970	4.845	-112.40799910445429	583.4286845483715	286.0002363230287	-272.14189112090895	396.43477547201894	43.52756594368551	-128.99866388091203	196.2599292476043	125.45765643870129
971	4.85	-112.3050456841038	582.8115916745627	285.93911570897257	-271.922457660443	395.94705548198374	43.25678932670486	-128.78064812477686	195.4730450416875	124.43420228547515
972	4.855	-112.2006832058774	582.1979279473626	285.8808915907598	-271.70502455219696	395.4602860695021	42.995604062414756	-128.56698692081892	194.68846672421475	123.42514812098082
973	4.86	-112.09496678416913	581.5877707036478	285.8255643669074	-271.4894258655816	394.97444008591174	42.74386342228473	-128.35749719246076	193.90623077287472	122.43047965971104
974	4.865	-111.98795176702426	580.981194828122	285.77313059295693	-271.2754963653663	394.4894924152669	42.50141386844367	-128.1519912663059	193.12637760458216	121.4501747617429
975	4.87	-111.87969367446898	580.3782726986973	285.7235830126244	-271.06307215180504	394.00542038071	42.2680953286964	-127.95027787037236	192.3489514248049	120.48420355552739
976	4.875	-111.77024813760433	579.7790741361847	285.6769105951192	-270.85199129563006	393.52220414315786	42.04374147487513	-127.75216313264545	191.57400008424844	119.53252856249526
977	4.88	-111.65967083857849	579.1836663584675	285.6330985784948	-270.64209446558493	393.0398270903936	41.82818000455789	-127.55745157488178	190.80157494360915	118.59510482345033
978	4.885	-111.54801745154494	578.5921139393087	285.59212851888566	-270.4332255461468	392.5582762146578	41.621232926200825	-127.36594709660363	190.03173074698688	117.67188002674573
979	4.89	-111.43534358470733	578.0044787719374	285.5539783454846	-270.22523224306894	392.0775424768502	41.42271684773711	-127.17745394426746	189.2645255044169	116.762794638258
980	4.895	-111.32170472354277	577.4208200375405	285.5186224211083	-270.0179666743684	391.5976211554778	41.23244326869344	-126.99177766066563	188.50002038384577	115.8677820331913
981	4.9	-111.20715617528936	576.8411941787673	285.4860316081949	-269.81128594438854	391.1185121785232	41.05021887586368	-126.8087260097298	187.73827961273534	114.98676862975609
982	4.905	-111.09175301477501	576.2656548783428	285.45617334007494	-269.605052698581	390.64022043645724	40.87584584256141	-126.62810987204459	186.9793703893345	114.11967402477632
983	4.91	-110.97555003165725	575.6942530428615	285.4290116973516	-269.39913565667814	390.1627560746746	40.709122131447074	-126.44974410655372	186.22336280351365	113.26641113128436
984	4.915	-110.85860167913644	575.1270367918246	285.4045074892219	-269.19341012196816	389.6861347637056	40.54984180089286	-126.27344837414175	185.47032976691216	112.4268863181658
985	4.92	-110.74096202419689	574.5640514519497	285.3826183395674	-268.9877584644373	389.21037794563694	40.39779531480929	-126.09904791900675	184.72034695200546	111.60099955191592
986	4.925	-110.6226846994232	574.0053395567808	285.36329877763774	-268.7820705756084	388.73551305526337	40.25276985581376	-125.926374303996	183.97349273956036	110.78864454056625
987	4.93	-110.50382285643245	573.4509408515901	285.3465003331475	-268.5762442929854	388.26157371459595	40.11454964157181	-125.75526609636083	183.22984817381248	109.98970887983437
988	4.935	-110.38442912095468	572.9008923035561	285.33217163560033	-268.3701857921084	387.7885998994625	39.982916244089694	-125.5855695006916	182.4894969245747	109.20407420154291
989	4.94	-110.26455554958943	572.3552281171746	285.3202585176516	-268.1638099443253	387.3166380770557	39.85764891168088	-125.41713893612116	181.75252525536604	108.43161632434476
990	4.945	-110.14425358825798	571.8139797548411	285.3107041223177	-267.95704063851304	386.84574131341174	39.738524893272	-125.2498375552295	181.01902199654495	107.67220540678137
991	4.95	-110.02357403236577	571.277175962526	285.3034490138319	-267.74981106510904	386.375969349941	39.625319764655096	-125.08353770244285	180.28907852233232	106.92570610269013
992	4.955	-109.90256698868382	570.7448428004406	285.2984312919465	-267.5420639609639	385.9073886482711	39.51780775623476	-124.9181213100939	179.56278873052796	106.19197771896557
993	4.96	-109.78128183895257	570.217003678573	285.2955867094745	-267.3337518136834	385.4400724028152	39.4157620817616	-124.75348023069387	178.840249023653	105.47087437566762
994	4.965	-109.65976720520639	569.6936793969563	285.2948487928599	-267.1248370242983	384.97410052062935	39.318955267488015	-124.5895165043581	178.12155829019684	104.76224516845895
995	4.97	-109.53807091681306	569.1748881905105	285.2961489655615	-266.91529202728236	384.5095595682823	39.22715948113011	-124.42614256072248	177.40681788460589	104.06593433334331
996	4.975	-109.41623997921785	568.6606457782805	285.29941667403244	-266.70509936713114	384.04654268562285	39.14014685997111	-124.26328135508714	176.6961316046278	103.38178141366637
997	4.98	-109.29432054437844	568.15096541688	285.3045795160718	-266.4942517309125	383.58514946649115	39.057689837397874	-124.10086643891886	175.9896056646171	102.70962142933246
998	4.985	-109.17235788287348	567.6458579579294	285.3115633713219	-266.28275193641093	383.125485806587	38.979561467124	-123.93884196523837	175.28734866341517	102.04928504818321
999	4.99	-109.0503963576648	567.145331909263	285.3202925336808	-266.070612875702	382.66766371887	38.905535744320986	-123.77716262980448	174.5894715454429	101.40059875947807
1000	4.995	-108.92847939949058	566.6493934996649	285.3306898453972	-265.8578574142133	382.2118011170325	38.835387922853876	-123.6157935493851	173.8960875536834	100.76338504941242
1001	5.0	-108.80664948386509	566.1580467468833	285.34267683260987	-265.64451824555556	381.758021567746	38.76889482780005	-123.45471007877124	173.20731217328816	100.13746257860596
1002	5.005	-108.68494810965835	565.6712935286523	285.35617384209326	-265.4306377026316	381.3064540125396	38.705835162419824	-123.29389756854222	172.52326306461012	99.52264636149337
1003	5.01	-108.56341577922838	565.1891336564496	285.3711001789663	-265.2162675257621	380.8572324603229	38.64598980874566	-123.13335106592726	171.84405998455009	98.91874794754867
1004	5.015	-108.4420919800773	564.711564951701	285.3873742451206	-265.00146858879356	380.4104956517161	38.5891421209632	-122.97307496142622	171.16982469520082	98.32557560427739
1005	5.02	-108.32101516800248	564.2385833241375	285.4049136781228	-264.78631058438134	379.9663866964893	38.53507821077201	-122.81308258415118	170.50068085888142	97.74293450191259
